<?xml version="1.0" standalone="no"?>
<!DOCTYPE svg PUBLIC "-//W3C//DTD SVG 20010904//EN"
 "http://www.w3.org/TR/2001/REC-SVG-20010904/DTD/svg10.dtd">
<svg version="1.0" xmlns="http://www.w3.org/2000/svg"
 width="1641.000000pt" height="316.000000pt" viewBox="0 0 1641.000000 316.000000"
 preserveAspectRatio="xMidYMid meet">

<g transform="translate(0.000000,316.000000) scale(0.100000,-0.100000)"
fill="#000000" stroke="none">
<path d="M0 2125 l0 -1035 948 0 c856 0 950 2 971 16 12 9 108 59 213 111
l191 94 133 137 c106 108 131 139 122 150 -15 17 -53 8 -95 -24 -17 -13 -40
-24 -50 -24 -10 0 -48 -20 -85 -45 -37 -25 -73 -45 -80 -45 -7 0 -31 -7 -53
-15 -22 -8 -67 -14 -100 -15 -68 -1 -168 -20 -205 -40 -37 -19 -99 -67 -152
-119 -27 -25 -48 -42 -48 -37 0 12 56 89 80 109 12 10 19 21 16 24 -3 4 -14
-1 -24 -10 -28 -25 -34 -20 -17 13 8 16 29 37 45 45 16 9 29 21 27 27 -3 18
87 47 217 69 157 26 179 33 252 85 53 37 102 100 89 113 -3 2 -27 -17 -54 -42
-84 -79 -208 -127 -329 -127 -36 0 -35 15 2 30 19 8 18 9 -9 10 l-30 0 25 21
c14 11 58 38 98 60 39 23 70 44 67 49 -2 4 14 15 38 24 32 13 46 26 60 56 10
22 26 40 34 40 10 0 13 6 9 16 -4 9 -2 22 3 28 12 14 32 88 23 84 -140 -74
-240 -92 -267 -48 -10 17 -100 59 -162 76 -32 8 -101 19 -153 23 -107 8 -116
1 70 55 47 14 76 25 64 25 -33 1 -226 -50 -251 -66 -13 -9 -26 -13 -29 -11
-10 11 48 67 92 89 43 20 56 21 168 16 133 -7 243 -29 260 -52 14 -19 86 -33
86 -16 0 6 14 11 30 11 36 0 38 16 8 56 -21 28 -20 28 13 -3 40 -38 96 -60
110 -46 7 7 -2 25 -25 54 -57 72 -87 127 -95 177 -5 26 -21 107 -36 180 -23
114 -25 137 -14 170 20 61 95 184 144 235 25 26 45 51 45 56 0 5 20 36 45 69
44 61 65 74 215 140 18 8 -337 11 -1312 11 l-1338 1 0 -1035z m1710 65 c23 0
-2 -18 -33 -24 -39 -7 -104 -61 -144 -120 -70 -104 -78 -115 -87 -116 -5 0 -3
7 4 15 7 9 10 18 7 22 -12 11 -90 -50 -195 -152 l-104 -100 56 88 c30 48 56
91 58 95 2 4 29 27 61 51 32 24 67 56 78 70 64 81 223 187 264 177 11 -3 27
-6 35 -6z m-80 -198 c0 -4 -5 -13 -11 -19 -8 -8 -2 -13 22 -18 18 -4 51 -17
74 -29 23 -13 82 -35 131 -50 90 -28 204 -82 204 -97 0 -16 -180 -73 -265 -83
-22 -2 -53 -9 -69 -16 -22 -8 -31 -8 -37 1 -14 23 -96 3 -198 -49 -56 -28
-101 -47 -101 -41 0 5 5 9 10 9 6 0 10 7 10 15 0 8 24 33 54 57 30 24 55 47
55 51 1 4 19 27 42 50 l40 42 -25 3 c-14 2 -26 6 -26 10 1 17 19 34 46 42 l29
8 -37 1 c-48 1 -54 14 -28 56 28 46 80 83 80 57z m190 -352 c0 -11 -63 -24
-82 -17 -8 3 -4 9 12 15 32 14 70 15 70 2z m760 -55 c0 -2 -10 -9 -22 -15 -22
-11 -22 -10 -4 4 21 17 26 19 26 11z m-907 -111 c8 -8 -98 -77 -169 -111 -29
-13 -60 -33 -70 -44 -9 -10 -22 -19 -29 -19 -6 0 -22 -11 -35 -25 -33 -35 -38
-22 -6 16 15 17 30 44 33 59 8 44 60 86 133 108 65 20 131 27 143 16z m134
-50 c-16 -9 -31 -13 -34 -10 -3 3 5 10 18 15 37 15 47 12 16 -5z m-157 -56 c0
-7 -14 -21 -30 -30 -35 -20 -38 -13 -8 19 24 26 38 29 38 11z"/>
<path d="M3510 3130 c80 -44 114 -84 107 -127 -9 -53 -22 -63 -86 -63 l-56 0
33 -16 c17 -9 52 -34 76 -55 24 -22 49 -39 56 -39 7 0 9 -9 5 -22 l-6 -23 20
24 c12 13 27 21 36 17 23 -8 18 -47 -10 -76 l-26 -27 25 -77 c44 -133 49 -158
50 -261 l1 -100 64 -94 c41 -61 64 -104 65 -125 1 -28 -4 -33 -47 -54 -42 -20
-48 -26 -42 -45 19 -60 17 -75 -8 -92 -25 -16 -25 -17 -6 -36 25 -25 24 -38
-7 -70 -22 -23 -24 -30 -14 -48 26 -50 -19 -133 -81 -146 -17 -4 -81 3 -149
15 -152 29 -180 24 -241 -40 -53 -54 -88 -135 -96 -220 -8 -87 3 -103 94 -135
43 -16 115 -45 160 -67 l82 -38 1080 0 1081 0 0 1035 0 1035 -1107 0 -1108 0
55 -30z"/>
<path d="M7374 691 c-53 -14 -135 -64 -170 -104 -62 -73 -78 -121 -79 -227 0
-82 4 -103 26 -150 32 -66 86 -123 154 -158 45 -24 61 -27 155 -27 95 0 110 3
156 27 197 104 246 372 98 537 -63 70 -135 104 -233 107 -42 2 -90 0 -107 -5z"/>
</g>
</svg>
