<?xml version="1.0" standalone="no"?>
<!DOCTYPE svg PUBLIC "-//W3C//DTD SVG 20010904//EN"
 "http://www.w3.org/TR/2001/REC-SVG-20010904/DTD/svg10.dtd">
<svg version="1.0" xmlns="http://www.w3.org/2000/svg"
 width="818.000000pt" height="656.000000pt" viewBox="0 0 818.000000 656.000000"
 preserveAspectRatio="xMidYMid meet">

<g transform="translate(0.000000,656.000000) scale(0.100000,-0.100000)"
fill="#000000" stroke="none">
<path d="M0 3280 l0 -3280 113 0 c108 0 114 2 156 30 48 33 61 31 61 -6 l0
-24 2298 1 c2024 1 2286 3 2202 15 -290 43 -382 59 -550 91 -102 19 -231 43
-288 53 -57 11 -248 55 -425 99 -525 131 -720 178 -937 225 -113 25 -242 54
-286 66 -45 11 -166 36 -270 55 -372 69 -716 147 -1174 265 -85 22 -170 42
-189 44 -19 1 -37 8 -39 14 -2 7 -14 12 -26 12 -25 0 -46 19 -69 66 -25 50
-84 106 -187 179 -100 70 -109 79 -233 224 l-77 91 0 270 c0 250 1 270 18 270
16 1 16 1 0 11 -16 9 -18 33 -18 278 l0 268 47 6 c46 5 221 87 274 128 20 16
22 20 9 29 -8 5 -31 10 -50 10 -66 1 -82 29 -70 125 10 72 13 766 4 889 -3 39
-10 76 -16 83 -7 9 -39 13 -104 13 l-94 0 0 75 0 75 99 0 c69 0 102 4 108 13
4 6 10 176 13 377 6 421 6 420 80 433 54 10 17 9 389 5 269 -4 305 -6 316 -21
16 -22 25 -223 25 -552 0 -282 -1 -279 53 -289 42 -7 47 -14 47 -60 0 -50 -11
-63 -60 -68 l-35 -3 -7 -275 c-5 -151 -11 -284 -16 -295 -4 -11 -5 -90 -2
-175 4 -103 3 -159 -4 -167 -6 -6 -40 -17 -76 -23 -92 -16 -213 -47 -254 -64
-52 -21 -69 -63 -74 -177 -7 -152 46 -335 149 -514 56 -98 188 -268 221 -286
12 -6 76 -16 142 -20 185 -14 439 -49 676 -93 84 -16 442 -96 450 -101 15 -9
356 -109 458 -134 64 -16 206 -55 316 -86 306 -87 882 -229 1016 -250 52 -8
121 -20 153 -26 61 -12 92 -8 207 25 30 9 68 16 83 16 16 0 104 -25 195 -56
250 -83 270 -86 492 -89 131 -1 231 -8 305 -20 87 -15 171 -19 400 -20 226 -1
304 -4 355 -17 36 -8 99 -21 140 -28 41 -6 109 -18 150 -26 113 -20 235 -21
255 0 9 9 22 16 28 16 7 0 73 25 147 56 156 64 176 71 250 84 64 11 131 23
250 44 122 23 240 30 272 17 31 -12 71 -82 92 -163 18 -67 102 -288 115 -301
11 -11 92 -25 149 -26 l32 -1 0 525 0 525 -37 0 c-21 0 -75 -7 -121 -15 -45
-8 -89 -12 -98 -8 -9 3 -27 -5 -42 -19 -15 -14 -40 -34 -55 -43 -16 -10 -42
-42 -58 -70 -16 -28 -42 -64 -59 -80 l-30 -29 -24 24 c-13 14 -46 66 -72 115
-48 92 -71 127 -160 241 l-52 65 5 107 c2 59 11 368 19 687 8 319 19 697 24
840 5 155 5 280 -1 310 -6 32 -5 62 1 85 6 19 15 213 20 430 6 217 13 428 16
468 9 113 6 112 227 112 100 0 253 3 340 7 l157 6 0 42 0 42 -52 6 c-29 2
-185 4 -347 4 -336 -1 -326 -3 -316 83 3 25 12 221 20 435 19 513 34 835 41
913 l6 62 -56 0 -56 0 0 -97 c0 -54 -5 -170 -10 -258 -16 -252 -33 -720 -31
-830 2 -72 -2 -110 -13 -137 -9 -21 -16 -64 -16 -96 0 -44 -4 -63 -17 -74 -15
-12 -106 -15 -624 -17 -487 -2 -608 1 -616 11 -6 7 -13 29 -17 48 -6 35 -67
248 -87 305 -6 17 -18 59 -28 95 -9 36 -31 85 -49 109 -41 56 -40 65 2 57 29
-6 38 -2 65 26 17 18 30 37 28 43 -2 6 -44 11 -99 13 l-96 3 -38 46 c-20 25
-51 51 -68 58 -48 21 -90 71 -101 122 -5 25 -17 49 -25 53 -8 4 -24 12 -36 17
-12 7 -55 9 -105 6 l-85 -6 -11 37 c-10 31 -9 38 3 43 12 4 14 32 13 158 -2
180 8 219 55 230 25 6 27 9 11 12 -11 3 -24 9 -30 14 -5 5 -59 9 -121 9 l-112
0 -5 -42 c-3 -24 -6 -99 -6 -168 -1 -69 -5 -128 -9 -131 -4 -4 -25 -10 -47
-14 -34 -5 -44 -2 -60 15 l-18 20 -20 -32 -20 -33 -15 42 c-9 23 -24 44 -34
46 -16 5 -18 18 -18 151 l0 146 -70 0 -70 0 0 -34 c0 -18 -3 -48 -6 -65 -6
-27 -3 -33 13 -37 22 -6 43 -61 43 -113 0 -30 -1 -31 -46 -31 -31 0 -56 -7
-76 -22 -29 -20 -32 -21 -62 -4 -21 11 -42 14 -64 10 -38 -8 -41 -17 -7 -32
29 -13 32 -30 8 -39 -10 -3 -25 -15 -34 -26 -14 -18 -29 -21 -101 -21 -51 -1
-91 -6 -100 -13 -11 -10 -19 -9 -37 4 -23 16 -23 16 -17 187 4 94 10 186 13
204 l5 32 -324 0 -324 0 1 -26 c0 -33 -24 -49 -60 -40 -23 6 -27 11 -23 36 l5
30 -1789 0 -1788 0 0 -3280z m3208 3227 c-5 -40 -78 -30 -78 10 0 19 41 33 63
21 11 -6 17 -18 15 -31z m2367 -517 c14 -15 16 -23 7 -32 -16 -16 -62 -1 -62
21 0 36 27 42 55 11z m-1307 -122 c6 -7 12 -29 14 -48 2 -28 -1 -36 -22 -47
-14 -7 -24 -17 -23 -21 1 -5 -22 -16 -52 -26 -30 -9 -57 -21 -60 -26 -7 -11
-78 -14 -88 -4 -19 20 44 104 78 104 11 0 39 18 60 40 40 40 74 51 93 28z
m627 -49 c39 -7 81 -13 95 -15 14 -1 25 -3 25 -4 0 0 36 -2 80 -3 44 -2 96
-10 115 -18 72 -32 106 -42 138 -40 18 0 49 -6 69 -14 19 -8 52 -15 72 -15 35
0 91 -37 191 -127 14 -13 30 -23 36 -23 20 0 111 -94 133 -137 14 -29 22 -64
23 -115 3 -63 0 -77 -19 -102 -28 -35 -31 -121 -7 -168 21 -41 44 -217 45
-358 1 -63 0 -119 -2 -125 -4 -13 10 -106 27 -180 14 -61 13 -71 -5 -200 -5
-38 -12 -92 -16 -120 -4 -27 -9 -57 -12 -65 -3 -8 -7 -24 -8 -35 -2 -11 -8
-33 -14 -49 -9 -23 -16 -27 -35 -22 -37 9 -51 -17 -49 -88 3 -82 -21 -140 -42
-105 -4 5 -21 9 -38 7 -23 -2 -32 1 -35 15 -2 10 3 17 12 17 8 0 15 8 15 18
-1 9 2 26 6 37 4 15 -1 26 -23 42 l-29 21 -38 -34 c-42 -37 -50 -40 -61 -22
-10 15 -34 -19 -34 -49 0 -22 -25 -39 -82 -57 -11 -3 -15 -12 -11 -28 10 -49
12 -51 28 -38 11 10 18 9 32 -5 16 -16 17 -16 30 1 12 16 13 16 13 -9 0 -15 5
-27 10 -27 6 0 10 9 10 19 0 29 63 65 89 52 11 -6 27 -8 35 -5 9 3 16 1 16 -5
0 -6 -11 -16 -24 -21 -28 -10 -43 -33 -51 -80 -7 -42 -12 -50 -30 -50 -12 0
-13 10 -8 45 5 39 4 45 -11 39 -17 -6 -18 -10 -20 -59 -1 -26 -5 -30 -31 -30
-20 -1 -31 -6 -33 -18 -2 -9 -10 -17 -17 -17 -7 0 -16 -13 -20 -30 -7 -30 -19
-38 -30 -20 -11 18 -23 11 -18 -11 4 -14 -1 -25 -16 -35 -11 -8 -21 -23 -21
-33 0 -10 -7 -25 -17 -32 -15 -13 -16 -9 -10 44 7 54 6 58 -15 67 l-23 9 22 0
c42 2 55 48 51 182 l-3 119 -45 -2 c-38 -3 -46 0 -55 20 -11 25 -26 28 -57 11
-18 -10 -25 -8 -41 12 -16 20 -21 21 -38 11 -13 -8 -25 -9 -36 -3 -9 5 -33 6
-53 4 -25 -4 -46 0 -62 11 -14 9 -33 14 -42 10 -35 -13 -14 26 48 88 71 71 92
103 76 113 -19 11 -37 -2 -43 -32 -4 -15 -11 -34 -15 -42 -11 -15 -100 -19
-172 -7 -43 8 -48 6 -96 -33 -40 -31 -61 -41 -89 -41 -20 0 -44 -4 -54 -9 -22
-12 -29 -7 -81 64 -53 73 -58 76 -92 69 -24 -5 -28 -2 -28 16 0 17 -5 21 -20
17 -20 -5 -30 9 -22 31 5 15 32 16 32 0 0 -7 5 -6 13 3 6 9 24 23 40 32 15 10
38 34 52 55 14 20 34 48 45 62 11 14 28 66 40 120 11 52 27 115 35 140 25 68
12 133 -36 191 -22 26 -39 51 -39 56 0 6 -10 18 -21 29 -12 10 -25 29 -30 41
-5 15 -22 26 -51 33 -24 6 -67 23 -97 37 -48 22 -68 25 -185 26 -101 2 -139
-2 -166 -14 l-35 -16 0 33 c0 24 9 42 33 67 l33 34 3 157 c2 102 7 161 14 168
7 7 12 22 12 35 0 17 -6 23 -21 23 -14 0 -19 5 -16 13 3 8 8 40 13 73 7 64 29
124 43 124 6 0 12 9 16 19 3 11 15 23 26 26 25 8 149 94 149 103 0 8 72 32 95
32 9 0 18 7 21 15 4 8 17 15 29 15 13 0 26 4 30 10 3 5 12 7 20 4 7 -3 25 2
39 11 17 12 36 15 56 12 19 -4 32 -2 37 6 15 25 84 57 141 66 31 5 60 7 65 4
4 -2 7 2 7 9 0 7 10 1 23 -14 18 -22 36 -30 92 -39z m-3890 -439 c4 -6 21 -8
40 -4 38 7 52 -7 29 -30 -11 -11 -21 -13 -32 -7 -11 6 -26 4 -47 -6 -25 -14
-59 -15 -240 -9 -276 10 -340 17 -340 36 0 21 69 26 352 28 150 1 234 -2 238
-8z m6322 -448 c22 -14 30 -54 21 -106 -10 -63 -23 -373 -19 -441 8 -120 -12
-498 -29 -566 -8 -32 -9 -62 -2 -99 7 -39 6 -79 -4 -147 -8 -52 -17 -180 -20
-286 -9 -326 -16 -853 -14 -1036 l2 -174 -43 7 c-24 4 -82 25 -129 46 -52 24
-133 50 -205 65 -108 24 -134 26 -260 21 -363 -15 -449 -22 -517 -45 l-68 -23
-32 21 c-78 49 -95 55 -126 42 -26 -11 -99 -75 -131 -115 -12 -16 -15 -16 -28
-3 -13 13 -13 18 1 39 9 14 23 49 32 79 20 67 29 79 63 79 14 0 60 12 101 25
91 30 134 31 197 4 48 -21 102 -27 123 -14 20 12 -92 56 -165 65 -113 13 -151
34 -186 102 -18 35 -25 39 -136 74 -116 36 -170 59 -206 86 -17 13 -17 16 3
63 11 28 29 66 39 85 10 19 24 52 31 73 6 20 29 63 49 95 44 66 115 187 148
251 40 80 107 314 118 411 1 14 3 28 4 33 0 4 10 7 21 7 23 0 24 10 10 61 -7
25 -7 66 1 130 6 52 11 159 10 238 0 169 11 207 57 196 25 -5 29 -2 37 27 8
26 16 34 38 36 21 3 27 9 27 28 0 27 -16 30 -67 12 -41 -15 -51 -6 -28 28 23
36 46 190 54 369 l6 150 528 2 c291 1 531 4 535 7 8 9 145 7 159 -2z m-3102
-291 l50 -18 -78 -8 c-50 -5 -86 -4 -100 3 l-22 11 23 0 c12 1 25 8 28 16 8
19 36 18 99 -4z m-1040 -128 c6 -18 13 -35 17 -38 3 -4 66 -8 140 -9 181 -4
178 -2 178 -124 0 -53 0 -112 1 -131 0 -18 -12 -57 -27 -86 -24 -48 -26 -60
-20 -118 5 -43 4 -67 -3 -72 -8 -4 -7 -13 3 -27 24 -35 -2 -75 -37 -56 -10 5
-22 7 -25 3 -6 -6 6 -17 51 -48 15 -10 20 -36 28 -167 15 -215 15 -215 24
-230 5 -8 8 -50 8 -94 0 -45 2 -85 6 -91 3 -5 6 -19 6 -29 0 -29 23 -31 31 -2
11 44 24 29 24 -26 0 -73 -9 -98 -32 -98 -15 0 -17 4 -9 18 6 11 5 21 -3 28
-9 9 -16 4 -26 -19 l-13 -29 -86 6 c-90 7 -177 -8 -224 -38 -29 -19 -155 -36
-265 -36 -63 0 -95 -5 -117 -17 -22 -12 -51 -16 -109 -15 -43 1 -86 4 -95 7
-16 5 -17 64 -16 748 0 637 2 746 15 762 12 14 24 16 75 11 119 -13 370 -22
393 -14 13 4 22 16 22 27 0 23 27 42 55 38 13 -1 24 -14 30 -34z m935 -123
c19 -2 48 2 63 8 25 11 75 9 120 -4 24 -7 11 -24 -18 -24 -13 0 -27 -4 -30
-10 -13 -21 -183 -6 -207 18 -16 16 0 34 20 23 9 -5 33 -10 52 -11z m335 0 c7
-11 -42 -26 -53 -16 -7 8 17 26 35 26 6 0 15 -4 18 -10z m-575 -43 c0 -7 28
-27 63 -45 57 -30 69 -32 157 -32 99 0 175 14 165 31 -10 16 42 10 98 -11 l55
-21 0 -49 c0 -55 -2 -57 -74 -94 -28 -15 -59 -36 -70 -49 -48 -56 -62 -79 -57
-96 3 -10 0 -22 -6 -25 -15 -10 -14 -69 1 -84 9 -9 6 -12 -13 -12 -15 0 -35
-11 -48 -26 -19 -22 -28 -25 -57 -19 -29 5 -38 2 -62 -23 -27 -29 -115 -82
-136 -82 -10 0 -36 44 -36 61 0 4 10 9 22 11 27 4 31 18 14 41 -12 16 -17 16
-35 6 -28 -18 -35 -7 -21 35 12 37 6 76 -11 76 -6 0 -19 21 -31 46 -19 43 -19
53 -8 145 7 55 16 102 21 105 11 6 12 44 1 44 -4 0 -7 17 -7 39 0 38 0 39 37
39 23 1 38 -4 38 -11z m-2089 -343 c135 -23 159 -35 159 -77 0 -30 -5 -36 -37
-50 -49 -20 -216 -47 -295 -47 -84 0 -98 14 -98 98 0 94 13 106 106 98 39 -3
113 -13 165 -22z m2867 -256 c-3 -7 -13 -13 -23 -13 -10 0 -20 6 -22 13 -3 7
5 12 22 12 17 0 25 -5 23 -12z m-852 -22 c1 -10 7 -23 13 -29 6 -6 11 -20 11
-31 0 -11 8 -28 17 -38 15 -17 15 -20 1 -35 -24 -24 -48 -9 -48 29 0 19 -7 44
-16 56 -10 15 -14 32 -10 48 7 28 28 28 32 0z m147 -42 c8 -8 -3 -34 -14 -34
-5 0 -9 9 -9 20 0 19 11 26 23 14z m869 -56 l28 -33 -28 -7 c-15 -5 -62 -12
-105 -17 -65 -7 -88 -6 -142 10 -90 28 -94 42 -9 36 38 -3 74 -6 79 -7 26 -4
111 20 120 34 14 23 26 20 57 -16z m112 -19 c-7 -13 -31 -11 -40 2 -9 16 18
30 33 17 7 -6 10 -14 7 -19z m-981 -1 c2 -7 1 -20 -3 -28 -4 -8 -13 -27 -21
-42 -7 -16 -14 -26 -17 -23 -3 2 3 20 12 40 14 28 15 39 6 51 -10 11 -9 14 3
14 8 0 17 -6 20 -12z m1712 -69 c4 -11 4 -23 0 -27 -7 -7 -25 17 -25 36 0 20
18 14 25 -9z m-1220 -31 c75 -18 310 -14 340 6 41 27 160 19 227 -15 10 -5 24
-9 32 -9 8 0 16 -7 20 -15 4 -10 -7 -21 -34 -35 -40 -20 -75 -20 -133 2 -20 8
-31 7 -42 -2 -10 -8 -30 -11 -58 -7 -27 4 -59 0 -90 -11 -38 -14 -51 -14 -67
-4 -11 6 -37 12 -58 12 -20 0 -48 7 -60 16 -13 9 -31 13 -42 9 -12 -4 -33 1
-53 13 -23 14 -45 18 -80 15 -35 -2 -54 1 -72 14 -13 10 -25 21 -25 25 -1 18
87 12 195 -14z m-465 -28 c0 -45 -10 -63 -26 -49 -17 14 -18 43 -3 70 13 26
29 15 29 -21z m1647 -42 c-3 -8 -6 -5 -6 6 -1 11 2 17 5 13 3 -3 4 -12 1 -19z
m-1407 -12 c0 -8 -5 -18 -11 -22 -6 -3 -8 -15 -5 -27 3 -11 1 -29 -5 -39 -6
-12 -6 -18 1 -18 5 0 18 -8 28 -18 10 -10 34 -30 55 -46 20 -16 35 -32 32 -36
-9 -15 38 -40 75 -40 24 0 39 -6 47 -20 7 -10 32 -24 55 -31 24 -6 53 -16 64
-21 32 -15 59 -6 62 20 3 18 6 21 17 12 16 -13 55 3 55 21 0 6 8 1 19 -12 18
-23 19 -23 46 -5 18 12 45 18 74 18 62 -2 75 8 66 47 -3 17 -12 34 -18 38 -7
4 -59 11 -117 14 -212 14 -301 28 -308 48 -3 10 2 12 23 9 27 -6 95 16 105 32
3 5 48 13 100 20 119 13 122 14 195 11 93 -3 148 4 176 22 24 16 29 16 62 2
29 -12 37 -21 37 -42 0 -14 -8 -32 -17 -39 -15 -11 -16 -16 -5 -33 17 -29 16
-37 -13 -95 -55 -110 -162 -229 -201 -224 -14 2 -29 -5 -37 -16 -8 -11 -27
-21 -43 -23 -16 -2 -36 -4 -45 -5 -12 -2 -15 -14 -15 -51 1 -55 -7 -65 -55
-69 -29 -3 -34 0 -37 19 -3 17 3 26 22 33 32 12 61 60 36 60 -5 0 -10 -6 -10
-14 0 -14 -77 -39 -92 -30 -5 3 -6 14 -3 24 9 30 -39 32 -67 3 l-22 -24 -15
28 -16 28 -3 -27 c-4 -33 -1 -32 -40 -12 -37 18 -39 25 -12 42 22 14 27 52 7
52 -19 0 -37 -21 -37 -42 0 -22 -26 -24 -34 -3 -3 9 6 25 22 40 20 18 24 27
15 36 -16 16 -60 3 -87 -26 -29 -31 -40 -32 -33 -3 9 31 -18 74 -53 86 -16 6
-31 18 -31 26 -1 9 -2 22 -3 29 0 6 -11 16 -23 22 -17 7 -23 18 -23 40 0 32
-22 71 -52 93 -14 10 -17 22 -13 50 3 20 7 48 9 62 2 20 10 26 37 31 55 10 59
10 59 -5z m1340 -62 c0 -8 -7 -14 -15 -14 -17 0 -18 2 -9 24 7 18 24 12 24
-10z m-43 -96 c-3 -7 -5 -2 -5 12 0 14 2 19 5 13 2 -7 2 -19 0 -25z m-5299
-60 c18 -18 14 -56 -7 -68 -26 -14 -50 -3 -57 26 -11 42 34 72 64 42z m1553
-177 c45 -44 49 -61 15 -61 -16 0 -35 14 -60 44 -42 52 -43 56 -15 56 12 0 39
-17 60 -39z m464 -67 c39 -8 120 -14 182 -14 97 0 118 -3 165 -25 59 -28 96
-31 163 -13 41 11 57 10 133 -10 48 -12 118 -39 156 -59 l70 -35 22 27 c15 18
28 26 45 23 20 -2 24 -9 27 -46 2 -31 -1 -44 -12 -48 -9 -3 -16 -15 -16 -26 0
-11 -13 -33 -29 -49 -24 -24 -35 -28 -61 -23 -21 5 -27 9 -19 15 10 6 7 13
-12 28 -23 20 -49 27 -49 15 0 -4 8 -13 18 -20 16 -12 15 -13 -9 -14 -14 0
-34 7 -45 15 -10 8 -29 15 -40 15 -12 0 -27 7 -34 15 -7 8 -19 15 -26 15 -8 0
-11 6 -8 15 4 8 1 15 -5 15 -6 0 -11 7 -11 15 0 8 -9 15 -20 15 -11 0 -23 7
-27 16 -3 9 -12 13 -22 9 -48 -19 -193 -23 -199 -6 -2 6 -14 8 -28 5 -20 -5
-24 -2 -24 15 0 20 -9 25 -37 22 -7 -1 -30 7 -52 19 -30 15 -59 20 -114 20
-40 0 -100 7 -132 16 -33 9 -94 24 -135 34 -68 16 -72 18 -40 22 46 7 139 0
225 -18z m3215 -541 c-12 -37 -23 -77 -24 -88 -5 -37 -36 -91 -79 -137 -79
-85 -285 -238 -319 -238 -7 0 -29 -10 -48 -23 -19 -13 -69 -37 -110 -55 -110
-46 -185 -69 -431 -133 -20 -5 -55 -9 -77 -9 -33 0 -40 3 -35 16 5 12 -2 15
-41 13 -39 -2 -51 2 -76 26 -38 37 -38 46 2 38 28 -6 30 -4 23 13 -5 10 -8 36
-7 57 1 27 -3 37 -13 37 -8 0 -15 8 -15 18 -1 25 -48 75 -65 68 -8 -3 -17 -1
-20 4 -3 5 -12 7 -20 4 -8 -3 -21 6 -31 21 -9 14 -23 24 -30 21 -8 -3 -13 -2
-13 2 3 20 -2 24 -13 9 -10 -13 -16 -14 -28 -4 -30 23 -72 87 -85 129 -8 24
-14 37 -14 31 -2 -28 -21 -10 -61 56 -29 49 -40 76 -35 90 9 28 39 26 63 -4
11 -14 25 -25 30 -25 6 0 32 -14 58 -32 41 -27 45 -33 30 -43 -26 -19 -19 -33
24 -46 22 -7 40 -16 40 -21 0 -4 10 -8 22 -8 12 0 29 -7 39 -16 14 -13 24 -13
59 -4 23 6 60 8 81 5 25 -4 39 -3 39 4 0 6 11 11 25 11 13 0 28 7 33 16 7 13
13 14 31 5 12 -7 32 -11 44 -9 17 2 21 -1 19 -18 -3 -20 3 -21 100 -27 74 -5
104 -10 110 -21 9 -17 50 -16 138 4 30 7 79 13 109 14 42 1 57 6 71 24 10 12
25 22 34 22 9 0 16 7 16 16 0 8 5 12 10 9 6 -4 32 7 59 24 26 17 61 31 78 31
17 0 36 7 43 15 7 8 21 15 31 15 11 0 19 5 19 10 0 16 22 12 35 -7 11 -15 16
-16 36 -5 23 12 94 115 94 136 0 12 59 45 63 35 2 -4 -6 -38 -18 -76z m-1313
-505 c-3 -8 -6 -5 -6 6 -1 11 2 17 5 13 3 -3 4 -12 1 -19z m21 -42 c3 -15 1
-16 -17 -6 -12 6 -19 16 -15 21 9 15 28 5 32 -15z m-3859 -1276 c23 -12 28
-54 9 -66 -7 -5 -61 -9 -120 -10 l-108 -1 0 48 0 48 99 -4 c55 -2 109 -9 120
-15z"/>
<path d="M4030 5175 c0 -8 5 -15 10 -15 6 0 10 7 10 15 0 8 -4 15 -10 15 -5 0
-10 -7 -10 -15z"/>
<path d="M5045 4754 c-37 -9 -123 -55 -141 -76 -12 -12 -17 -31 -16 -49 3 -28
-31 -99 -47 -99 -5 0 -16 -18 -26 -39 -21 -47 -14 -88 23 -148 34 -54 60 -66
98 -46 26 13 37 13 109 -2 44 -9 90 -23 102 -31 12 -8 31 -14 42 -14 11 0 22
-4 26 -9 3 -5 30 -13 59 -16 41 -5 71 -2 123 13 37 12 86 24 108 28 37 7 38 8
15 16 -14 5 -63 7 -110 4 -143 -10 -201 -7 -247 15 -24 12 -43 25 -43 29 0 15
87 23 144 13 34 -6 61 -6 72 0 11 7 27 5 51 -7 53 -25 251 -16 261 13 2 6 9
11 17 11 16 0 40 28 31 37 -3 4 -12 1 -18 -5 -14 -14 -72 -17 -64 -3 3 4 19
11 35 14 23 5 30 13 35 40 9 47 -27 114 -102 191 -65 68 -102 86 -169 86 -26
0 -80 7 -118 15 -76 16 -218 27 -250 19z m316 -178 c77 -25 92 -38 62 -52 -22
-10 -383 -12 -383 -2 0 15 82 59 123 68 73 14 122 11 198 -14z"/>
<path d="M4910 3250 c0 -5 5 -10 10 -10 6 0 10 5 10 10 0 6 -4 10 -10 10 -5 0
-10 -4 -10 -10z"/>
<path d="M4493 3083 c-13 -2 -23 -8 -23 -13 0 -12 37 -23 50 -15 12 7 14 36 3
34 -5 -1 -18 -4 -30 -6z"/>
<path d="M4564 3069 c-10 -16 16 -36 59 -43 33 -6 38 -4 49 19 15 32 5 41 -28
26 -19 -8 -30 -9 -38 -1 -13 13 -33 13 -42 -1z"/>
<path d="M2950 2740 c0 -5 7 -10 16 -10 8 0 12 5 9 10 -3 6 -10 10 -16 10 -5
0 -9 -4 -9 -10z"/>
<path d="M3820 2350 c0 -5 5 -10 11 -10 5 0 7 5 4 10 -3 6 -8 10 -11 10 -2 0
-4 -4 -4 -10z"/>
<path d="M5738 6517 c-22 -52 -22 -67 -3 -93 10 -13 14 -46 15 -112 0 -77 3
-94 16 -99 11 -4 22 1 31 13 13 17 26 19 121 17 125 -3 140 5 168 91 23 70 49
104 87 114 44 11 47 43 8 82 l-29 30 -199 0 -198 0 -17 -43z"/>
<path d="M5426 6495 c4 -8 8 -15 10 -15 2 0 4 7 4 15 0 8 -4 15 -10 15 -5 0
-7 -7 -4 -15z"/>
<path d="M5435 6461 c-17 -28 24 -42 45 -16 8 9 8 15 2 15 -6 0 -17 3 -25 6
-8 3 -18 1 -22 -5z"/>
<path d="M4452 6179 c2 -7 10 -15 17 -17 8 -3 12 1 9 9 -2 7 -10 15 -17 17 -8
3 -12 -1 -9 -9z"/>
<path d="M5787 6160 c3 -11 12 -20 19 -20 18 0 18 8 0 26 -20 19 -25 18 -19
-6z"/>
<path d="M665 2123 c12 -32 10 -38 -10 -38 -11 0 -21 -7 -23 -16 -4 -24 -50
-31 -62 -9 -5 10 -7 20 -4 22 2 3 -2 11 -10 17 -12 10 -20 9 -39 -4 -22 -14
-26 -14 -34 -1 -4 8 -21 16 -38 18 -24 2 -30 -1 -30 -17 -1 -11 -8 -32 -18
-45 -9 -13 -17 -30 -17 -37 0 -14 -31 -33 -55 -33 -8 0 -19 8 -22 18 -13 34
-47 72 -65 72 -16 0 -18 -6 -13 -32 19 -115 11 -202 -22 -226 -13 -9 -15 -15
-6 -20 7 -4 17 -30 23 -57 6 -28 17 -59 24 -70 20 -31 25 -73 10 -86 -8 -6
-14 -17 -14 -24 0 -18 25 -25 41 -12 12 10 12 9 2 -3 -20 -22 -15 -40 12 -50
14 -5 25 -15 25 -21 0 -15 39 -59 169 -194 58 -60 124 -133 145 -162 41 -54
75 -73 130 -73 29 1 76 29 76 46 0 4 8 16 17 27 17 18 17 19 0 32 -24 17 -21
25 7 25 29 0 44 19 25 31 -9 6 1 9 30 9 42 0 43 1 39 30 -3 16 -1 30 4 30 4 0
8 -5 8 -12 0 -7 11 3 24 22 l24 35 -22 12 c-20 11 -20 12 9 18 63 14 65 16 65
45 0 33 23 60 51 60 29 0 23 17 -11 29 -39 13 -38 24 4 39 28 10 39 10 55 0
17 -10 23 -9 40 6 11 10 23 27 26 37 4 11 14 19 24 19 10 0 24 7 31 15 9 11
17 12 31 4 14 -7 26 -5 46 8 15 10 29 17 32 15 3 -2 7 1 9 7 2 6 -7 7 -25 2
-43 -12 -78 -8 -78 9 0 10 12 16 33 18 46 5 40 19 -8 19 -22 0 -46 5 -53 11
-14 12 -59 20 -157 26 -106 7 -127 15 -164 60 -19 22 -51 59 -71 81 -44 48
-59 66 -110 128 -34 42 -40 47 -51 33 -18 -25 -26 -19 -19 14 4 20 0 43 -12
70 -17 38 -42 58 -28 23z m-315 -219 c0 -8 -4 -12 -10 -9 -5 3 -10 10 -10 16
0 5 5 9 10 9 6 0 10 -7 10 -16z m877 -316 c-3 -8 -6 -5 -6 6 -1 11 2 17 5 13
3 -3 4 -12 1 -19z m-206 -151 c-1 -12 -15 -9 -19 4 -3 6 1 10 8 8 6 -3 11 -8
11 -12z"/>
<path d="M240 2089 c0 -5 5 -7 10 -4 6 3 10 8 10 11 0 2 -4 4 -10 4 -5 0 -10
-5 -10 -11z"/>
<path d="M591 2084 c0 -11 3 -14 6 -6 3 7 2 16 -1 19 -3 4 -6 -2 -5 -13z"/>
<path d="M1378 1583 c6 -2 18 -2 25 0 6 3 1 5 -13 5 -14 0 -19 -2 -12 -5z"/>
<path d="M5260 582 c0 -6 16 -12 36 -14 40 -3 61 -25 51 -52 -5 -12 -20 -16
-63 -16 -32 0 -55 -2 -52 -5 9 -9 169 -36 179 -29 6 3 9 16 8 27 -2 12 2 32 9
44 10 19 9 24 -5 31 -28 15 -163 26 -163 14z"/>
<path d="M8090 528 c1 -7 14 -47 30 -88 17 -41 30 -87 30 -101 0 -14 7 -34 15
-45 13 -17 14 -6 15 107 0 138 0 139 -61 139 -17 0 -29 -5 -29 -12z"/>
<path d="M6886 490 c-27 -61 -16 -83 14 -27 17 32 21 50 14 57 -7 7 -16 -2
-28 -30z"/>
<path d="M6731 404 c0 -11 3 -14 6 -6 3 7 2 16 -1 19 -3 4 -6 -2 -5 -13z"/>
<path d="M6840 390 c0 -19 3 -21 12 -12 9 9 9 15 0 24 -9 9 -12 7 -12 -12z"/>
<path d="M6813 342 c-6 -4 -14 -19 -18 -33 -8 -34 -41 -54 -61 -38 -8 6 -16
10 -18 8 -2 -2 -14 -56 -26 -119 -12 -63 -24 -125 -27 -138 -5 -21 -3 -22 72
-22 62 0 81 4 92 18 14 18 83 160 83 172 0 4 -10 6 -22 5 -13 -1 -29 -3 -36
-4 -7 0 -18 -14 -23 -31 -6 -17 -15 -30 -20 -30 -6 0 -15 -14 -21 -31 -7 -20
-16 -29 -27 -26 -9 2 -14 10 -12 18 2 8 7 35 12 60 6 41 38 112 72 161 13 20
-1 42 -20 30z m-63 -313 c0 -5 -4 -9 -10 -9 -5 0 -10 7 -10 16 0 8 5 12 10 9
6 -3 10 -10 10 -16z"/>
<path d="M6862 256 c1 -10 8 -17 13 -17 15 1 12 24 -3 29 -9 3 -13 -2 -10 -12z"/>
<path d="M8149 45 c-3 -2 -52 -9 -109 -15 -209 -22 -215 -27 -32 -29 l172 -1
0 25 c0 22 -18 34 -31 20z"/>
</g>
</svg>
